<svg width="251" height="250" viewBox="0 0 251 250" fill="none" xmlns="http://www.w3.org/2000/svg">
<mask id="mask0" mask-type="alpha" maskUnits="userSpaceOnUse" x="0" y="0" width="251" height="250">
<circle cx="125.146" cy="125" r="124" fill="#001D33" stroke="#F1F4F4" stroke-width="2"/>
</mask>
<g mask="url(#mask0)">
<circle cx="125.146" cy="125" r="125" fill="#001D33"/>
<circle cx="125.024" cy="76.5381" r="48.4619" fill="#F1F4F4"/>
<path d="M275.496 248.291C275.496 303.034 128.945 348.022 74.2018 348.022C19.4587 348.022 -24.9193 303.644 -24.9193 248.901C-24.9193 194.158 -29.2474 151.855 25.4957 151.855C80.2388 151.855 275.496 193.548 275.496 248.291Z" fill="#003A66"/>
<path d="M28.7111 278.32C28.7111 333.063 175.262 378.052 230.005 378.052C284.748 378.052 329.126 333.674 329.126 278.931C329.126 224.188 333.454 181.885 278.711 181.885C223.968 181.885 28.7111 223.577 28.7111 278.32Z" fill="#005799"/>
<circle cx="125.146" cy="125" r="124" stroke="#F1F4F4" stroke-width="2"/>
</g>
</svg>
