<svg width="250" height="250" viewBox="0 0 250 250" fill="none" xmlns="http://www.w3.org/2000/svg">
<mask id="mask0" mask-type="alpha" maskUnits="userSpaceOnUse" x="0" y="0" width="250" height="250">
<circle cx="125" cy="125" r="125" fill="#222222"/>
</mask>
<g mask="url(#mask0)">
<circle cx="125" cy="125" r="124.479" fill="white" stroke="black" stroke-width="1.04167"/>
<path fill-rule="evenodd" clip-rule="evenodd" d="M85.0328 108.465C85.5505 108.583 86.0116 108.876 86.338 109.294L109.994 139.625C110.717 140.553 111.165 141.681 111.301 142.85C116.704 189.443 138.8 212.243 140.353 212.864C141.04 213.139 142.197 206.648 143.31 198.884C144.169 192.889 154.433 189.539 159.392 193.017C165.202 197.092 171.646 200.787 176.714 203.421C179.194 204.71 182.216 204.112 183.956 201.925C196.487 186.173 211.942 156.072 191.413 137.48C173.06 120.859 177.89 104.094 185.011 94.4464C187.208 91.4694 187.319 87.1276 184.362 84.9036C170.399 74.403 155.692 73.0874 144.674 74.8271C140.51 75.4844 133.198 68.9968 129.75 66.5729C127.339 64.8775 124.033 63.9733 121.019 63.586C119.98 63.4524 119.549 62.0509 120.387 61.4219C121.158 60.8437 120.856 59.6784 119.893 59.6663C105.6 59.4867 86.4841 76.6753 77.411 86.7421C76.7396 87.487 76.3101 88.4154 76.1959 89.4117C76.0455 90.7226 75.9798 91.8421 75.9864 93.0761C75.9937 94.4139 77.5681 95.0434 78.7332 94.386C79.0611 94.201 79.1117 94.2834 79.4881 94.2834H83.0641C83.7428 94.2834 84.1107 95.0779 83.6715 95.5954C83.1517 96.208 83.7601 97.1225 84.5252 96.8771C89.9717 95.1304 97.5345 92.7967 102.156 91.6364C104.502 91.0476 104.767 91.769 102.507 92.6304C100.91 93.2393 98.8654 93.9693 96.5589 94.7659C96.2623 94.8683 95.9993 95.0195 95.7816 95.2456C94.3756 96.7055 91.6182 101.387 89.8787 102.428C89.6998 102.535 89.5843 102.619 89.552 102.671C87.4679 103.245 85.6696 104.107 84.1935 105.077C82.7271 106.041 83.3215 108.076 85.0328 108.465ZM128.401 73.2094C126.481 67.3754 114.593 67.3754 112.674 73.2094C111.115 77.9464 111.856 84.0085 119.489 84.0085C127.121 84.0085 130.11 78.4033 128.401 73.2094Z" fill="#F9D248"/>
<path d="M78.9216 109.676L83.5348 110.725L108.803 143.122C113.835 190.932 136.482 214.312 138.055 214.941M78.9216 109.676L59.2106 110.201M78.9216 109.676C80.6007 107.8 83.4514 105.797 87.2535 104.749M116.352 115.233C104.363 104.113 94.214 102.83 87.2535 104.749M59.2106 110.201C59.7348 109.432 61.3075 107.705 63.4044 106.95C65.1408 106.325 82.4279 100.915 93.8097 96.9989M59.2106 110.201L58.3718 111.564C57.603 110.375 57.0298 107.349 60.8881 104.749C63.9326 102.697 69.7014 99.7269 73.7853 97.7239M73.7853 97.7239C74.877 97.1885 75.8483 96.7221 76.615 96.3609H82.4863L79.5507 99.8208C86.82 97.4443 101.841 92.7542 103.77 93.0058C103.876 93.3952 99.6097 95.0031 93.8097 96.9989M73.7853 97.7239C73.6103 95.6102 73.6688 92.9472 74.0961 89.9653M93.8097 96.9989C92.4117 98.3239 90.2659 101.184 92.8661 102.023C91.0815 102.791 87.4606 104.413 87.2535 104.749M74.0961 89.9653C75.7179 78.6493 82.6525 62.7417 102.302 54.842C133.337 42.3654 160.387 57.4632 161.855 61.5521L190.792 73.7142C214.592 77.4537 269.091 95.8577 296.686 139.557C331.18 194.182 344.181 200.892 353.303 235.281C340.576 228.834 324.42 220.329 307.59 210.992M74.0961 89.9653C83.1836 79.5506 105.112 59.3713 120.126 61.9715L115.513 65.4314C122.782 65.5363 135.685 68.8075 129.143 81.0534C139.243 75.7413 165.021 70.3801 187.332 91.4332C178.665 99.0869 166.887 119.427 189.114 139.557C211.342 159.688 191.386 193.308 178.63 207.602C169.229 203.129 149.021 191.77 143.402 182.125C142.144 193.273 139.313 215.445 138.055 214.941M138.055 214.941C154.48 230.039 199.452 260.675 247.933 262.437C296.414 264.198 307.905 228.874 307.59 210.992M210.906 141.891C210.854 141.594 210.824 141.305 210.817 141.025C210.398 123.159 210.702 134.158 210.906 141.891ZM210.906 141.891C213.298 155.436 262.824 186.156 307.59 210.992M110.375 75.2869C112.295 69.4529 124.182 69.4529 126.102 75.2869C127.811 80.4809 124.823 86.086 117.19 86.086C109.558 86.086 108.817 80.0239 110.375 75.2869Z" stroke="#050505" stroke-width="1.04846"/>
</g>
</svg>
